<?xml version="1.0" standalone="no"?>
<!DOCTYPE svg PUBLIC "-//W3C//DTD SVG 20010904//EN"
 "http://www.w3.org/TR/2001/REC-SVG-20010904/DTD/svg10.dtd">
<svg version="1.0" xmlns="http://www.w3.org/2000/svg"
 width="512.000000pt" height="512.000000pt" viewBox="0 0 512.000000 512.000000"
 preserveAspectRatio="xMidYMid meet">

<g transform="translate(0.000000,512.000000) scale(0.100000,-0.100000)"
fill="currentColor" stroke="none">
<path d="M3 3433 c3 -1176 1 -1122 62 -1363 175 -687 740 -1241 1430 -1403
220 -52 226 -52 1065 -52 839 0 845 0 1065 52 690 162 1255 716 1430 1403 61
241 59 187 62 1363 l4 1077 -2561 0 -2561 0 4 -1077z m4817 627 l0 -150 -600
0 -600 0 0 -450 0 -449 150 -3 151 -3 -89 -63 c-319 -225 -587 -590 -711 -968
-81 -246 -101 -405 -101 -789 l0 -275 -460 0 -460 0 0 275 c0 383 -21 547
-100 785 -127 382 -381 731 -698 960 l-103 75 150 3 151 3 0 449 0 450 -600 0
-600 0 0 150 0 150 2260 0 2260 0 0 -150z m-3620 -600 l0 -150 -450 0 -450 0
0 150 0 150 450 0 450 0 0 -150z m3620 0 l0 -150 -450 0 -450 0 0 150 0 150
450 0 450 0 0 -150z m-4311 -492 c126 -27 243 -68 371 -132 387 -193 684 -528
828 -937 70 -199 92 -371 92 -725 l0 -256 -57 7 c-176 21 -355 75 -523 159
-387 193 -684 528 -828 937 -70 199 -92 371 -92 725 l0 256 58 -7 c31 -3 99
-16 151 -27z m4311 -223 c0 -432 -36 -629 -165 -900 -236 -494 -737 -855
-1277 -920 l-58 -7 0 256 c0 274 9 395 42 545 109 510 477 950 970 1160 138
59 359 117 461 120 l27 1 0 -255z"/>
</g>
</svg>
