<?xml version="1.0" standalone="no"?>
<!DOCTYPE svg PUBLIC "-//W3C//DTD SVG 20010904//EN"
 "http://www.w3.org/TR/2001/REC-SVG-20010904/DTD/svg10.dtd">
<svg version="1.0" xmlns="http://www.w3.org/2000/svg"
 width="512.000000pt" height="512.000000pt" viewBox="0 0 512.000000 512.000000"
 preserveAspectRatio="xMidYMid meet">

<g transform="translate(0.000000,512.000000) scale(0.100000,-0.100000)"
fill="currentColor" stroke="none">
<path d="M945 5110 c-249 -54 -425 -267 -425 -515 0 -211 140 -417 331 -486
48 -18 58 -25 52 -38 -13 -28 -16 -728 -3 -816 24 -160 94 -335 188 -463 26
-35 53 -72 60 -82 12 -17 10 -20 -18 -35 -95 -49 -206 -213 -230 -340 -8 -42
-10 -332 -8 -990 l3 -930 23 -59 c58 -153 175 -270 327 -328 l60 -23 1619 -3
1618 -2 -5 292 c-4 311 -8 338 -61 470 -41 100 -88 169 -179 262 l-88 90 28
20 c100 72 213 205 272 323 192 384 65 868 -292 1112 -68 46 -199 105 -282
127 -99 26 -322 26 -420 0 -254 -68 -460 -235 -576 -466 -22 -43 -39 -83 -39
-89 0 -6 -2 -11 -4 -11 -8 0 -441 331 -443 338 -2 4 30 27 70 52 86 52 237
200 296 288 57 85 115 208 148 317 l27 90 4 396 c3 361 2 403 -16 491 -84 411
-409 735 -827 823 -102 22 -302 22 -407 2 -64 -13 -167 -45 -228 -71 -11 -5
-28 11 -58 53 -51 73 -148 145 -241 179 -73 27 -206 38 -276 22z m166 -301
c46 -16 97 -55 119 -92 l19 -31 -67 -70 c-61 -64 -152 -189 -167 -229 -11 -26
-86 7 -134 58 -85 93 -81 226 12 313 58 56 144 76 218 51z m926 -169 c96 -12
213 -52 293 -100 70 -41 160 -115 160 -132 0 -5 -28 -39 -62 -75 -157 -164
-375 -284 -603 -335 -73 -16 -141 -21 -357 -25 l-268 -5 0 27 c0 46 30 147 66
222 108 227 334 390 586 422 87 12 103 12 185 1z m647 -580 c13 -56 16 -136
16 -417 0 -391 -4 -420 -69 -557 -100 -213 -280 -360 -511 -417 -124 -31 -290
-24 -412 18 -211 73 -384 237 -466 443 -40 98 -52 184 -52 366 l0 172 278 5
c310 5 397 16 572 73 199 66 389 177 533 314 45 43 85 76 89 74 3 -2 14 -35
22 -74z m-1164 -1627 c68 -37 107 -91 120 -168 6 -35 10 -359 10 -782 l0 -722
798 -3 c795 -3 797 -3 837 -25 110 -59 156 -188 106 -298 -23 -51 -89 -111
-138 -124 -58 -16 -1852 -15 -1907 1 -54 16 -131 93 -145 144 -15 54 -15 1794
0 1848 13 48 94 131 140 145 65 18 123 13 179 -16z m2322 -24 c97 -20 214 -84
287 -157 116 -117 166 -239 166 -407 0 -168 -50 -290 -166 -407 -107 -107
-255 -168 -407 -168 -367 1 -641 349 -557 707 49 207 219 378 427 429 67 16
181 17 250 3z m-1437 -285 c171 -130 326 -251 345 -270 130 -124 167 -336 86
-498 -54 -109 -117 -166 -263 -237 l-123 -59 -249 0 -250 0 -3 628 c-2 345 -7
635 -12 644 -7 15 1 17 66 21 40 1 78 4 83 5 6 1 150 -104 320 -234z m749
-941 c22 -21 52 -45 66 -54 l24 -16 -29 -26 c-27 -24 -38 -26 -117 -27 -49 0
-88 2 -88 4 0 2 20 34 45 70 25 37 45 72 45 77 0 16 12 10 54 -28z m662 -224
c154 -28 299 -138 367 -279 43 -90 57 -162 57 -287 l0 -93 -288 0 -289 0 23
67 c17 50 24 91 24 153 0 147 -42 261 -132 356 -29 31 -45 55 -38 59 18 11
133 33 176 34 22 1 67 -4 100 -10z"/>
</g>
</svg>
