<?xml version="1.0" standalone="no"?>
<!DOCTYPE svg PUBLIC "-//W3C//DTD SVG 20010904//EN"
 "http://www.w3.org/TR/2001/REC-SVG-20010904/DTD/svg10.dtd">
<svg version="1.0" xmlns="http://www.w3.org/2000/svg"
 width="512.000000pt" height="512.000000pt" viewBox="0 0 512.000000 512.000000"
 preserveAspectRatio="xMidYMid meet">

<g transform="translate(0.000000,512.000000) scale(0.100000,-0.100000)"
fill="currentColor" stroke="none">
<path d="M2471 5109 c-128 -25 -257 -125 -311 -241 -36 -77 -50 -146 -50 -250
0 -142 -43 -186 -202 -206 -197 -25 -351 -168 -388 -361 -5 -30 -10 -94 -10
-142 l0 -89 -100 0 -100 0 0 -1910 0 -1910 1250 0 1250 0 0 1910 0 1910 -100
0 -100 0 0 89 c0 48 -5 112 -10 142 -37 193 -191 336 -388 361 -159 20 -202
64 -202 206 0 44 -5 103 -10 133 -47 244 -285 406 -529 358z m159 -309 c58
-29 80 -79 80 -178 0 -44 5 -103 10 -133 37 -193 191 -336 388 -361 163 -21
202 -63 202 -218 l0 -90 -750 0 -750 0 0 90 c0 155 39 197 202 218 197 25 351
168 388 361 5 30 10 89 10 133 0 97 22 148 78 177 48 26 93 26 142 1z m880
-1390 l0 -110 -950 0 -950 0 0 110 0 110 950 0 950 0 0 -110z m0 -1760 l0
-1350 -950 0 -950 0 0 1350 0 1350 950 0 950 0 0 -1350z"/>
<path d="M1910 1650 l0 -1050 300 0 300 0 0 150 0 150 -150 0 -150 0 0 150 0
150 150 0 150 0 0 150 0 150 -150 0 -150 0 0 150 0 150 150 0 150 0 0 150 0
150 -150 0 -150 0 0 150 0 150 150 0 150 0 0 150 0 150 -300 0 -300 0 0 -1050z"/>
</g>
</svg>
