<?xml version="1.0" standalone="no"?>
<!DOCTYPE svg PUBLIC "-//W3C//DTD SVG 20010904//EN"
 "http://www.w3.org/TR/2001/REC-SVG-20010904/DTD/svg10.dtd">
<svg version="1.0" xmlns="http://www.w3.org/2000/svg"
 width="512.000000pt" height="512.000000pt" viewBox="0 0 512.000000 512.000000"
 preserveAspectRatio="xMidYMid meet">

<g transform="translate(0.000000,512.000000) scale(0.100000,-0.100000)"
fill="currentColor" stroke="none">
<path d="M3410 4540 l0 -149 109 -3 109 -3 -134 -240 c-74 -132 -151 -268
-170 -302 l-35 -63 381 0 380 0 0 150 0 150 -120 0 c-66 0 -120 4 -120 8 0 5
55 107 123 228 68 120 142 254 166 297 l42 77 -365 0 -366 0 0 -150z"/>
<path d="M2330 4090 l0 -150 173 -2 174 -3 -208 -370 c-114 -203 -208 -373
-209 -377 0 -5 189 -8 420 -8 l420 0 0 150 0 150 -165 0 c-91 0 -165 2 -165 4
0 3 304 549 392 704 l29 52 -430 0 -431 0 0 -150z"/>
<path d="M0 2090 l0 -1670 150 0 150 0 0 190 0 190 2260 0 2260 0 0 -190 0
-190 150 0 150 0 0 665 0 665 -144 0 -144 0 -5 143 c-3 113 -9 155 -26 204
-60 166 -204 309 -370 366 l-66 22 -1354 3 -1355 2 -51 40 c-166 128 -407 155
-601 66 l-54 -25 0 595 0 594 -475 0 -475 0 0 -1670z m650 515 l0 -855 -175 0
-175 0 0 855 0 855 175 0 175 0 0 -855z m722 -283 c58 -25 118 -85 149 -148
33 -68 33 -179 1 -246 -30 -60 -90 -120 -150 -150 -64 -31 -177 -31 -243 -1
-129 58 -202 206 -169 342 43 180 242 278 412 203z m3002 -162 c61 -31 120
-97 140 -157 11 -31 16 -82 16 -150 l0 -103 -1340 0 -1340 0 0 220 0 220 1238
-2 1237 -3 49 -25z m446 -885 l0 -175 -2260 0 -2260 0 0 175 0 175 2260 0
2260 0 0 -175z"/>
</g>
</svg>
