<svg viewBox="0 0 24 24" fill="none" xmlns="http://www.w3.org/2000/svg">
  <path d="M8.25 6.75H20.25M8.25 12H20.25M8.25 17.25H20.25M3.75 6.75H3.758V6.758H3.75V6.75ZM4.125 6.75C4.125 6.957 3.957 7.125 3.75 7.125C3.543 7.125 3.375 6.957 3.375 6.75C3.375 6.543 3.543 6.375 3.75 6.375C3.957 6.375 4.125 6.543 4.125 6.75ZM3.75 12H3.758V12.008H3.75V12ZM4.125 12C4.125 12.207 3.957 12.375 3.75 12.375C3.543 12.375 3.375 12.207 3.375 12C3.375 11.793 3.543 11.625 3.75 11.625C3.957 11.625 4.125 11.793 4.125 12ZM3.75 17.25H3.758V17.258H3.75V17.25ZM4.125 17.25C4.125 17.457 3.957 17.625 3.75 17.625C3.543 17.625 3.375 17.457 3.375 17.25C3.375 17.043 3.543 16.875 3.75 16.875C3.957 16.875 4.125 17.043 4.125 17.25Z" stroke="currentColor" stroke-width="1.5" stroke-linecap="round" stroke-linejoin="round"/>
</svg>
