<svg viewBox="0 0 24 24" fill="none" xmlns="http://www.w3.org/2000/svg">
  <path d="M5 4H19C20.105 4 21 4.895 21 6V15C21 16.105 20.105 17 19 17H9L5 20.5V17C3.895 17 3 16.105 3 15V6C3 4.895 3.895 4 5 4Z" stroke="currentColor" stroke-width="1.5" stroke-linecap="round" stroke-linejoin="round"/>
  <path d="M12 13.6C9.8 12.1 8.6 10.9 8.6 9.6C8.6 8.6 9.4 7.9 10.3 7.9C10.9 7.9 11.5 8.2 12 8.8C12.5 8.2 13.1 7.9 13.7 7.9C14.6 7.9 15.4 8.6 15.4 9.6C15.4 10.9 14.2 12.1 12 13.6Z" stroke="currentColor" stroke-width="1.5" stroke-linecap="round" stroke-linejoin="round"/>
</svg>
