<svg viewBox="0 0 24 24" fill="none" xmlns="http://www.w3.org/2000/svg">
  <path d="M2.25 12 11.204 3.045C11.644 2.606 12.356 2.606 12.795 3.045L21.75 12M4.5 9.75V20.25C4.5 20.664 4.836 21 5.25 21H9.75C10.164 21 10.5 20.664 10.5 20.25V15C10.5 14.586 10.836 14.25 11.25 14.25H12.75C13.164 14.25 13.5 14.586 13.5 15V20.25C13.5 20.664 13.836 21 14.25 21H18.75C19.164 21 19.5 20.664 19.5 20.25V9.75M8.25 21H16.5" stroke="currentColor" stroke-width="1.5" stroke-linecap="round" stroke-linejoin="round"/>
</svg>
